<svg width="32" height="32" viewBox="0 0 32 32" fill="none" xmlns="http://www.w3.org/2000/svg">
<mask id="mask0_2148_1221" style="mask-type:alpha" maskUnits="userSpaceOnUse" x="0" y="0" width="32" height="32">
<rect width="32" height="32" fill="#EDEDED"/>
</mask>
<g mask="url(#mask0_2148_1221)">
<path d="M14.4001 16.4222L19.6001 21.3813C19.8445 21.6144 19.9667 21.9111 19.9667 22.2714C19.9667 22.6317 19.8445 22.9284 19.6001 23.1615C19.3556 23.3946 19.0445 23.5112 18.6667 23.5112C18.289 23.5112 17.9778 23.3946 17.7334 23.1615L11.6001 17.3123C11.4667 17.1852 11.3723 17.0474 11.3167 16.8991C11.2612 16.7507 11.2334 16.5918 11.2334 16.4222C11.2334 16.2527 11.2612 16.0938 11.3167 15.9454C11.3723 15.7971 11.4667 15.6593 11.6001 15.5322L17.7334 9.68299C17.9778 9.44987 18.289 9.33331 18.6667 9.33331C19.0445 9.33331 19.3556 9.44987 19.6001 9.68299C19.8445 9.91611 19.9667 10.2128 19.9667 10.5731C19.9667 10.9334 19.8445 11.2301 19.6001 11.4632L14.4001 16.4222Z" fill="#343434"/>
</g>
</svg>
